<?xml version="1.0" encoding="UTF-8"?>
<svg width="337px" height="365px" viewBox="0 0 337 365" version="1.1" xmlns="http://www.w3.org/2000/svg" xmlns:xlink="http://www.w3.org/1999/xlink">
    <!-- Generator: Sketch 47.1 (45422) - http://www.bohemiancoding.com/sketch -->
    <title>simci_logo_tagline_cmyk</title>
    <desc>Created with Sketch.</desc>
    <defs></defs>
    <g id="Page-1" stroke="none" stroke-width="1" fill="none" fill-rule="evenodd">
        <g id="simci_logo_tagline_cmyk" transform="translate(0.000000, -477.000000)" fill="#005AAA">
            <path d="M7.0469,829.4395 L9.5974,829.4395 C9.9854,829.4395 10.3959,829.4259 10.83,829.3982 C11.264,829.3699 11.6573,829.2873 12.0087,829.1482 C12.3591,829.0101 12.6504,828.7931 12.881,828.4971 C13.1122,828.2022 13.2282,827.7859 13.2282,827.2499 C13.2282,826.751 13.1263,826.354 12.9228,826.0581 C12.7199,825.7631 12.4616,825.5361 12.1468,825.3787 C11.832,825.2224 11.4727,825.1157 11.0664,825.0603 C10.6595,825.0054 10.2621,824.9771 9.874,824.9771 L7.0469,824.9771 L7.0469,829.4395 Z M2.7232,821.3185 L10.3175,821.3185 C11.3153,821.3185 12.2624,821.4153 13.1592,821.6093 C14.0545,821.8033 14.84,822.1275 15.5141,822.5799 C16.1882,823.0328 16.7247,823.6425 17.1222,824.4092 C17.5191,825.1764 17.7183,826.1323 17.7183,827.2776 C17.7183,828.6639 17.358,829.8416 16.6369,830.8117 C15.9167,831.7818 14.8635,832.3957 13.4777,832.6546 L18.4661,840.9418 L13.2837,840.9418 L9.1816,833.098 L7.0469,833.098 L7.0469,840.9418 L2.7232,840.9418 L2.7232,821.3185 Z" id="Fill-1"></path>
            <polygon id="Fill-3" points="21.9501 821.3184 35.2822 821.3184 35.2822 825.3101 26.2749 825.3101 26.2749 828.9681 34.7828 828.9681 34.7828 832.9598 26.2749 832.9598 26.2749 836.951 35.7806 836.951 35.7806 840.9417 21.9501 840.9417"></polygon>
            <path d="M49.9301,826.1133 C49.5786,825.6699 49.1028,825.342 48.5024,825.1297 C47.9015,824.9173 47.3336,824.8112 46.7976,824.8112 C46.4828,824.8112 46.1601,824.8483 45.828,824.922 C45.4954,824.9958 45.1806,825.1114 44.8857,825.2682 C44.5891,825.4256 44.3491,825.6333 44.1645,825.8916 C43.9794,826.1505 43.8873,826.4648 43.8873,826.8345 C43.8873,827.4259 44.1091,827.8783 44.5525,828.1926 C44.9955,828.5069 45.5545,828.7746 46.2297,828.9964 C46.9037,829.2181 47.6291,829.4393 48.4051,829.661 C49.1812,829.8828 49.9065,830.1976 50.5806,830.6039 C51.2558,831.0103 51.8148,831.5552 52.2577,832.2392 C52.7012,832.9227 52.9229,833.8379 52.9229,834.9831 C52.9229,836.0735 52.7195,837.0247 52.3132,837.8379 C51.9063,838.6511 51.3572,839.3252 50.6643,839.8607 C49.9709,840.3967 49.1671,840.7942 48.253,841.0525 C47.3378,841.3114 46.3724,841.4411 45.3563,841.4411 C44.0814,841.4411 42.899,841.2465 41.8091,840.8585 C40.7183,840.4705 39.7016,839.8429 38.7603,838.9743 L41.8363,835.5929 C42.2798,836.1844 42.8383,836.6414 43.5134,836.9646 C44.188,837.2878 44.8857,837.4499 45.6052,837.4499 C45.9567,837.4499 46.3123,837.4081 46.6726,837.3249 C47.0334,837.2418 47.3561,837.1168 47.6432,836.951 C47.9292,836.7842 48.1599,836.5724 48.3356,836.3135 C48.5113,836.0547 48.5992,835.7498 48.5992,835.3989 C48.5992,834.8074 48.3722,834.3409 47.9198,833.9989 C47.4675,833.6574 46.8985,833.3662 46.215,833.1256 C45.532,832.8861 44.7926,832.6455 43.9987,832.405 C43.2033,832.1649 42.4649,831.8418 41.7814,831.4354 C41.0969,831.0286 40.5289,830.4925 40.0766,829.8279 C39.6232,829.1621 39.3973,828.2846 39.3973,827.1943 C39.3973,826.1416 39.6049,825.2175 40.0217,824.4231 C40.4374,823.6288 40.9907,822.9636 41.6841,822.427 C42.3771,821.8915 43.1756,821.4894 44.0814,821.2216 C44.9866,820.9539 45.9201,820.82 46.8813,820.82 C47.9894,820.82 49.0609,820.9769 50.0953,821.2907 C51.1302,821.6055 52.0637,822.1321 52.8952,822.871 L49.9301,826.1133 Z" id="Fill-4"></path>
            <polygon id="Fill-5" points="57.0728 840.9416 61.396574 840.9416 61.396574 821.31832 57.0728 821.31832"></polygon>
            <polygon id="Fill-6" points="66.5236 821.3184 70.8474 821.3184 70.8474 836.951 78.8569 836.951 78.8569 840.9417 66.5236 840.9417"></polygon>
            <polygon id="Fill-7" points="81.9915 840.9416 86.315274 840.9416 86.315274 821.31832 81.9915 821.31832"></polygon>
            <polygon id="Fill-8" points="91.4425 821.3184 104.7736 821.3184 104.7736 825.3101 95.7663 825.3101 95.7663 828.9681 104.2753 828.9681 104.2753 832.9598 95.7663 832.9598 95.7663 836.951 105.2731 836.951 105.2731 840.9417 91.4425 840.9417"></polygon>
            <polygon id="Fill-9" points="109.7663 821.3184 115.6412 821.3184 123.9838 834.9549 124.0403 834.9549 124.0403 821.3184 128.3641 821.3184 128.3641 840.9417 122.7094 840.9417 114.145 826.9731 114.0901 826.9731 114.0901 840.9417 109.7663 840.9417"></polygon>
            <polygon id="Fill-10" points="137.0334 825.1435 131.4341 825.1435 131.4341 821.3186 146.9554 821.3186 146.9554 825.1435 141.3572 825.1435 141.3572 840.9419 137.0334 840.9419"></polygon>
            <path d="M164.4445,837.2832 L168.3248,837.2832 C168.6569,837.2832 168.9937,837.2466 169.3362,837.1724 C169.6782,837.0986 169.9878,836.9689 170.2644,836.7843 C170.5421,836.5997 170.768,836.3592 170.9437,836.0637 C171.1195,835.7688 171.2073,835.4079 171.2073,834.9833 C171.2073,834.5215 171.0917,834.1471 170.8611,833.8605 C170.6289,833.5739 170.3382,833.3569 169.9878,833.2089 C169.6364,833.0614 169.2572,832.9595 168.8509,832.904 C168.444,832.8491 168.0654,832.8209 167.715,832.8209 L164.4445,832.8209 L164.4445,837.2832 Z M164.4445,829.1623 L167.5759,829.1623 C167.9091,829.1623 168.2369,829.1252 168.5596,829.0514 C168.8833,828.9777 169.1746,828.8574 169.4329,828.6911 C169.6913,828.5248 169.8999,828.3031 170.0568,828.0259 C170.2132,827.7493 170.2921,827.4162 170.2921,827.0281 C170.2921,826.6218 170.2043,826.2845 170.0296,826.0167 C169.8539,825.7485 169.627,825.5409 169.3503,825.3929 C169.0726,825.2449 168.7589,825.1387 168.4074,825.0739 C168.056,825.0095 167.715,824.9771 167.3819,824.9771 L164.4445,824.9771 L164.4445,829.1623 Z M160.1207,821.3185 L167.4374,821.3185 C168.2871,821.3185 169.1417,821.3787 170.0019,821.4984 C170.8611,821.6192 171.632,821.8593 172.3155,822.2191 C172.9984,822.5799 173.5533,823.0835 173.979,823.7299 C174.4031,824.3768 174.6164,825.236 174.6164,826.3075 C174.6164,827.4162 174.3069,828.336 173.6882,829.065 C173.068,829.7956 172.2511,830.3175 171.2345,830.6313 L171.2345,830.6867 C171.8814,830.7793 172.4687,830.9597 172.9948,831.2274 C173.5214,831.4957 173.9743,831.8372 174.3529,832.253 C174.731,832.6687 175.0223,833.154 175.2262,833.7078 C175.4296,834.2621 175.5306,834.8536 175.5306,835.4817 C175.5306,836.5166 175.3088,837.3805 174.8659,838.0734 C174.4224,838.7663 173.8493,839.3248 173.1469,839.75 C172.4451,840.1752 171.6544,840.48 170.7769,840.6646 C169.8999,840.8493 169.0266,840.9418 168.1585,840.9418 L160.1207,840.9418 L160.1207,821.3185 Z" id="Fill-11"></path>
            <polygon id="Fill-12" points="183.4883 832.5716 176.1158 821.3182 181.4928 821.3182 185.6497 828.6636 190.0572 821.3182 195.1842 821.3182 187.8121 832.5716 187.8121 840.942 183.4883 840.942"></polygon>
            <path d="M211.9249,836.9508 L214.1699,836.9508 C215.1677,836.9508 216.0965,836.8493 216.9552,836.6459 C217.8144,836.4425 218.558,836.1057 219.1861,835.634 C219.8142,835.1628 220.3083,834.5436 220.6692,833.7775 C221.0295,833.0109 221.2094,832.0727 221.2094,830.964 C221.2094,830.0034 221.0295,829.1672 220.6692,828.4554 C220.3083,827.7447 219.8241,827.1575 219.2143,826.6957 C218.6046,826.2339 217.8876,825.8877 217.0655,825.6561 C216.2434,825.4254 215.379,825.3099 214.4743,825.3099 L211.9249,825.3099 L211.9249,836.9508 Z M207.6011,821.3182 L214.0863,821.3182 C215.6572,821.3182 217.1492,821.4944 218.5627,821.8453 C219.9763,822.1962 221.2094,822.7647 222.2626,823.5496 C223.3164,824.3356 224.1521,825.3559 224.7707,826.612 C225.3899,827.8692 225.6995,829.3936 225.6995,831.1858 C225.6995,832.775 225.3993,834.1744 224.7984,835.3846 C224.1981,836.5952 223.3901,837.6118 222.3735,838.4334 C221.3574,839.256 220.1839,839.8799 218.854,840.3045 C217.5231,840.7297 216.1279,840.942 214.6683,840.942 L207.6011,840.942 L207.6011,821.3182 Z" id="Fill-13"></path>
            <polygon id="Fill-14" points="229.7656 821.3184 243.0967 821.3184 243.0967 825.3101 234.0894 825.3101 234.0894 828.9681 242.5983 828.9681 242.5983 832.9598 234.0894 832.9598 234.0894 836.951 243.5961 836.951 243.5961 840.9417 229.7656 840.9417"></polygon>
            <path d="M257.7456,826.1133 C257.3942,825.6699 256.9183,825.342 256.3179,825.1297 C255.7171,824.9173 255.1491,824.8112 254.6131,824.8112 C254.2983,824.8112 253.9756,824.8483 253.6436,824.922 C253.311,824.9958 252.9961,825.1114 252.7012,825.2682 C252.4047,825.4256 252.1646,825.6333 251.98,825.8916 C251.7949,826.1505 251.7029,826.4648 251.7029,826.8345 C251.7029,827.4259 251.9246,827.8783 252.3681,828.1926 C252.811,828.5069 253.3701,828.7746 254.0452,828.9964 C254.7193,829.2181 255.4446,829.4393 256.2207,829.661 C256.9967,829.8828 257.7221,830.1976 258.3962,830.6039 C259.0713,831.0103 259.6303,831.5552 260.0733,832.2392 C260.5167,832.9227 260.7385,833.8379 260.7385,834.9831 C260.7385,836.0735 260.535,837.0247 260.1287,837.8379 C259.7218,838.6511 259.1727,839.3252 258.4798,839.8607 C257.7864,840.3967 256.9826,840.7942 256.0685,841.0525 C255.1533,841.3114 254.1879,841.4411 253.1719,841.4411 C251.8969,841.4411 250.7145,841.2465 249.6247,840.8585 C248.5338,840.4705 247.5172,839.8429 246.5758,838.9743 L249.6519,835.5929 C250.0953,836.1844 250.6538,836.6414 251.329,836.9646 C252.0036,837.2878 252.7012,837.4499 253.4208,837.4499 C253.7722,837.4499 254.1278,837.4081 254.4881,837.3249 C254.849,837.2418 255.1716,837.1168 255.4587,836.951 C255.7448,836.7842 255.9754,836.5724 256.1511,836.3135 C256.3268,836.0547 256.4147,835.7498 256.4147,835.3989 C256.4147,834.8074 256.1877,834.3409 255.7354,833.9989 C255.283,833.6574 254.714,833.3662 254.0305,833.1256 C253.3476,832.8861 252.6081,832.6455 251.8143,832.405 C251.0189,832.1649 250.2804,831.8418 249.5969,831.4354 C248.9124,831.0286 248.3445,830.4925 247.8921,829.8279 C247.4387,829.1621 247.2128,828.2846 247.2128,827.1943 C247.2128,826.1416 247.4204,825.2175 247.8372,824.4231 C248.253,823.6288 248.8062,822.9636 249.4997,822.427 C250.1926,821.8915 250.9911,821.4894 251.8969,821.2216 C252.8021,820.9539 253.7356,820.82 254.6968,820.82 C255.8049,820.82 256.8764,820.9769 257.9109,821.2907 C258.9458,821.6055 259.8792,822.1321 260.7107,822.871 L257.7456,826.1133 Z" id="Fill-15"></path>
            <polygon id="Fill-16" points="264.8874 840.9416 269.211174 840.9416 269.211174 821.31832 264.8874 821.31832"></polygon>
            <path d="M292.05,839.5558 C290.7746,840.221 289.4447,840.7016 288.0583,840.9976 C286.6725,841.2926 285.259,841.4406 283.8177,841.4406 C282.2844,841.4406 280.8709,841.2005 279.5776,840.7204 C278.2838,840.2399 277.1663,839.5516 276.2234,838.6553 C275.281,837.759 274.5463,836.6733 274.0202,835.3989 C273.4936,834.1234 273.23,832.701 273.23,831.1305 C273.23,829.5601 273.4936,828.1366 274.0202,826.8622 C274.5463,825.5867 275.281,824.5016 276.2234,823.6052 C277.1663,822.7089 278.2838,822.0212 279.5776,821.5406 C280.8709,821.06 282.2844,820.82 283.8177,820.82 C285.3887,820.82 286.8336,821.0093 288.1556,821.3879 C289.4761,821.7665 290.6365,822.4181 291.6343,823.3417 L288.5855,826.6677 C287.994,826.0579 287.3283,825.5967 286.5899,825.2818 C285.8504,824.9681 284.9269,824.8112 283.8177,824.8112 C282.8942,824.8112 282.058,824.9681 281.3102,825.2818 C280.5613,825.5967 279.9191,826.0354 279.3836,826.5986 C278.8476,827.1624 278.436,827.8318 278.15,828.6078 C277.8629,829.3844 277.7201,830.2248 277.7201,831.1305 C277.7201,832.0541 277.8629,832.8997 278.15,833.6663 C278.436,834.433 278.8476,835.0987 279.3836,835.6619 C279.9191,836.2257 280.5613,836.6644 281.3102,836.9782 C282.058,837.293 282.8942,837.4499 283.8177,837.4499 C284.7606,837.4499 285.5733,837.3437 286.2568,837.1309 C286.9403,836.9186 287.4852,836.701 287.892,836.4793 L287.892,833.2919 L284.3721,833.2919 L284.3721,829.3013 L292.05,829.3013 L292.05,839.5558 Z" id="Fill-17"></path>
            <polygon id="Fill-18" points="296.9252 821.3184 302.8011 821.3184 311.1437 834.9549 311.1992 834.9549 311.1992 821.3184 315.5229 821.3184 315.5229 840.9417 309.8693 840.9417 301.3049 826.9731 301.2489 826.9731 301.2489 840.9417 296.9252 840.9417"></polygon>
            <path d="M329.4662,743.8024 C330.3087,743.8024 330.8013,743.371 330.8013,742.6106 C330.8013,741.8507 330.3087,741.4392 329.4662,741.4392 L328.1102,741.4392 L328.1102,743.8024 L329.4662,743.8024 Z M330.9451,744.7061 L332.4036,746.9249 L330.6988,746.9249 L329.6304,744.9932 L329.4662,744.9932 L328.1102,744.9932 L328.1102,746.9249 L326.6313,746.9249 L326.6313,740.2484 L329.4662,740.2484 C331.2333,740.2484 332.219,741.0904 332.219,742.5494 C332.219,743.5963 331.7672,744.3363 330.9451,744.7061 L330.9451,744.7061 Z M334.746,743.7815 C334.746,740.8033 332.3629,738.3585 329.2811,738.3585 C326.1795,738.3585 323.7964,740.844 323.7964,743.8228 C323.7964,746.801 326.1591,749.2458 329.2403,749.2458 C332.3629,749.2458 334.746,746.7602 334.746,743.7815 L334.746,743.7815 Z M336.2249,743.7815 C336.2249,747.5823 333.164,750.7864 329.2403,750.7864 C325.337,750.7864 322.3175,747.6231 322.3175,743.8228 C322.3175,740.022 325.3579,736.8178 329.2811,736.8178 C333.1844,736.8178 336.2249,739.9603 336.2249,743.7815 L336.2249,743.7815 Z" id="Fill-19"></path>
            <polygon id="Fill-20" points="69.826 801.7499 83.8882 801.7499 83.8882 736.85826 69.826 736.85826"></polygon>
            <polygon id="Fill-21" points="99.5059 736.8002 119.7002 736.8002 134.698 779.0825 134.8821 779.0825 149.9724 736.8002 170.0747 736.8002 170.0747 801.5956 157.2404 801.5956 157.2404 751.9005 157.0568 751.9005 139.9422 801.5956 128.9936 801.5956 112.5238 751.9005 112.3397 751.9005 112.3397 801.5956 99.5059 801.5956"></polygon>
            <polygon id="Fill-22" points="185.7437 774.6986 209.9402 774.6986 209.9402 763.6188 185.7437 763.6188"></polygon>
            <polygon id="Fill-23" points="301.5474 801.7499 315.6096 801.7499 315.6096 736.85826 301.5474 736.85826"></polygon>
            <path d="M29.418,802.582 C19.1446,802.582 8.5103,798.7979 0.905,792.4471 L6.4724,781.0473 C13.0438,786.7271 22.4862,790.6649 29.6052,790.6649 C36.0375,790.6649 39.7269,788.2405 39.7269,784.0124 C39.7269,778.511 33.383,776.7434 26.0371,774.6966 C16.0612,771.9165 4.754,768.7663 4.754,755.603 C4.754,744.0374 14.5823,736.5644 29.7935,736.5644 C38.4353,736.5644 47.5545,739.1363 54.2624,743.4554 L48.8504,755.0769 C42.0766,751.1229 33.976,748.482 28.5739,748.482 C23.1169,748.482 19.8594,750.6188 19.8594,754.1963 C19.8594,759.5168 26.0826,761.3257 33.2878,763.4201 C43.3677,766.3492 54.7922,769.6689 54.7383,783.1673 C54.7383,794.962 44.7996,802.582 29.418,802.582" id="Fill-24"></path>
            <path d="M260.2215,802.6943 C240.8157,802.6943 226.1814,788.4229 226.1814,769.4978 C226.1814,750.7865 241.0573,736.6767 260.7836,736.6767 C270.0174,736.6767 279.7098,740.7035 286.1646,747.2048 L278.0249,757.1137 C273.3805,751.9647 266.8839,748.7815 260.9719,748.7815 C249.5653,748.7815 240.6301,757.7988 240.6301,769.31 C240.6301,780.8736 249.5653,789.9327 260.9719,789.9327 C266.738,789.9327 273.2378,787.057 278.0228,782.4063 L286.2446,791.3358 C279.2831,798.3496 269.3454,802.6943 260.2215,802.6943" id="Fill-25"></path>
            <path d="M258.5591,558.9385 C258.5591,551.5011 249.2631,546.5832 237.4815,543.3378 C235.5314,544.7717 232.6552,546.5587 230.2872,547.876 C236.706,550.8605 240.2542,554.4213 240.2542,558.5024 C240.2542,572.0741 148.5999,605.0619 148.5999,605.0619 C148.5999,605.0619 187.6394,596.2857 219.1954,584.6636 C214.6421,614.1043 189.1324,636.7173 158.4356,636.7173 C153.9576,636.7173 149.592,636.232 145.3832,635.3184 C139.8833,637.9588 135.125,640.4224 131.1505,642.6858 C139.5811,646.108 148.7913,647.999 158.4356,647.999 C196.9615,647.999 228.5819,617.9041 231.0429,579.99 C246.834,573.27 258.5591,565.9278 258.5591,558.9385" id="Fill-26"></path>
            <path d="M213.6551,517.1736 C220.225,520.1874 223.9568,523.7968 223.9568,527.9448 C223.9568,541.5165 131.0908,574.9452 131.0908,574.9452 C131.0908,574.9452 242.2617,549.786 242.2617,528.3815 C242.2617,520.7647 232.5112,515.7925 220.328,512.5512 C218.5965,513.96 216.3023,515.5958 213.6551,517.1736" id="Fill-27"></path>
            <path d="M204.4585,498.8424 C204.4585,510.3384 139.3928,536.0369 119.4238,543.4952 C142.4123,537.9671 222.764,517.6164 222.764,499.2785 C222.764,478.977 153.5004,477.4515 153.5004,477.4515 C153.5004,477.4515 204.4585,485.2702 204.4585,498.8424" id="Fill-28"></path>
            <path d="M86.906,602.8017 C80.4883,599.8172 76.9391,596.257 76.9391,592.1758 C76.9391,578.6042 168.2315,545.5389 168.2315,545.5389 C168.2315,545.5389 129.1308,554.3857 97.6386,566.0721 C102.0748,536.4965 127.6446,513.7423 158.4355,513.7423 C163.0218,513.7423 167.4904,514.2512 171.7917,515.2076 C177.2665,512.5777 182.0045,510.1245 185.959,507.8717 C177.4642,504.3878 168.1713,502.4607 158.4355,502.4607 C119.8076,502.4607 88.1198,532.7177 85.8099,570.7761 C70.1977,577.4777 58.6341,584.7876 58.6341,591.7392 C58.6341,599.1766 67.9312,604.0945 79.7118,607.3399 C81.6629,605.906 84.5391,604.1196 86.906,602.8017" id="Fill-29"></path>
            <path d="M103.5384,633.5043 C96.9685,630.4905 93.2367,626.8811 93.2367,622.733 C93.2367,609.1613 186.1027,575.7326 186.1027,575.7326 C186.1027,575.7326 74.9318,600.8924 74.9318,622.2963 C74.9318,629.9137 84.6828,634.8854 96.866,638.1272 C98.597,636.7183 100.8907,635.082 103.5384,633.5043" id="Fill-30"></path>
            <path d="M112.7355,651.8357 C112.7355,640.4552 176.3009,615.114 196.888,607.3732 C173.1486,613.1288 94.4295,633.2306 94.4295,651.3996 C94.4295,671.7011 163.6931,673.226 163.6931,673.226 C163.6931,673.226 112.7355,665.4079 112.7355,651.8357" id="Fill-31"></path>
        </g>
    </g>
</svg>