<?xml version="1.0" encoding="UTF-8"?>
<svg width="313px" height="123px" viewBox="0 0 313 123" version="1.1" xmlns="http://www.w3.org/2000/svg" xmlns:xlink="http://www.w3.org/1999/xlink">
    <!-- Generator: Sketch 47.1 (45422) - http://www.bohemiancoding.com/sketch -->
    <title>Untitled 6</title>
    <desc>Created with Sketch.</desc>
    <defs>
        <polygon id="path-1" points="63.383 123 0.703 123 0.703 0.979 63.383 0.979 63.383 123"></polygon>
    </defs>
    <g id="Page-1" stroke="none" stroke-width="1" fill="none" fill-rule="evenodd">
        <g id="targetholding">
            <path d="M70.502,78.254 L104.168,113.207 C105.332,112.354 106.474,111.439 107.545,110.472 L79.33,70.908 C76.152,73.054 73.183,75.511 70.502,78.254" id="Fill-1" fill="#D8232A"></path>
            <path d="M73.662,62.953 L51.834,32.333 L37.152,43.643 L63.652,71.16 C66.74,68.134 70.079,65.373 73.662,62.953" id="Fill-2" fill="#1A1919"></path>
            <path d="M120.633,93.057 C124.096,85.051 124.983,74.653 118.233,68.04 C119.034,76.379 119.834,84.719 120.633,93.057" id="Fill-3" fill="#D8232A"></path>
            <g id="Group-7" transform="translate(60.000000, 0.000000)">
                <mask id="mask-2" fill="white">
                    <use xlink:href="#path-1"></use>
                </mask>
                <g id="Clip-5"></g>
                <path d="M63.383,59.604 L63.35,0.979 L52.194,5.01 L57.002,55.175 C59.358,56.275 61.563,57.738 63.383,59.604" id="Fill-4" fill="#1A1919" mask="url(#mask-2)"></path>
                <path d="M22.115,122.725 C22.115,122.723 22.115,122.723 22.115,122.723 C23.249,122.572 24.371,122.359 25.486,122.113 L0.703,114.923 C5.295,121.996 14.26,123.768 22.115,122.725" id="Fill-6" fill="#D8232A" mask="url(#mask-2)"></path>
            </g>
            <path d="M6.557,99.23 L0,108.166 C16.803,111.53 33.605,114.895 50.408,118.259 C50.5,118.277 50.591,118.295 50.682,118.312 C49.259,116.111 48.33,113.699 47.705,111.162 L6.557,99.23" id="Fill-8" fill="#1A1919"></path>
            <path d="M109.805,53.003 L104.555,23.939 L94.714,29.185 L101.48,52.643 C104.249,52.426 107.066,52.552 109.805,53.003" id="Fill-9" fill="#1A1919"></path>
            <path d="M112.055,65.467 C111.833,64.238 112.02,64.115 110.721,63.721 C108.657,63.102 106.536,62.845 104.391,62.729 L115.635,101.703 C116.483,100.593 117.252,99.403 117.969,98.203 C116.68,91.068 115.391,83.933 114.102,76.797 C113.42,73.02 112.739,69.243 112.055,65.467" id="Fill-10" fill="#D8232A"></path>
            <path d="M86.228,66.961 L109.917,108.287 C111.022,107.203 112.086,106.074 113.092,104.898 L96.691,63.406 C93.065,64.117 89.563,65.383 86.228,66.961" id="Fill-11" fill="#D8232A"></path>
            <path d="M92.979,54.035 L81.543,25.107 L67.426,34.153 L81.354,58.431 C85.062,56.586 88.955,55.041 92.979,54.035" id="Fill-12" fill="#1A1919"></path>
            <path d="M58.201,108.491 L90.18,120.762 C91.553,120.29 92.902,119.732 94.225,119.133 L58.145,101.008 C57.788,103.48 57.749,106.029 58.201,108.491" id="Fill-13" fill="#D8232A"></path>
            <path d="M48.338,96.082 L10.138,76.892 L1.483,86.723 C16.686,92.557 31.887,98.391 47.088,104.225 C47.255,101.463 47.617,98.766 48.338,96.082" id="Fill-14" fill="#1A1919"></path>
            <path d="M59.869,94.424 L97.295,117.604 C98.68,116.839 100.047,116.05 101.363,115.172 L65.313,84.397 C63.082,87.496 61.221,90.85 59.869,94.424" id="Fill-15" fill="#D8232A"></path>
            <path d="M30.086,75.967 L50.956,88.896 C52.72,84.977 55.051,81.283 57.684,77.892 L42.205,64.693 L30.086,75.967" id="Fill-16" fill="#1A1919"></path>
            <polyline id="Fill-17" fill="#1A1919" points="161.429 68.907 161.043 70.57 151.063 70.57 145.905 96.917 141.952 96.917 142.047 96.362 147.111 70.57 136.985 70.57 137.371 68.907 161.429 68.907"></polyline>
            <path d="M172.711,83.871 L180.571,83.871 L179.317,72.061 L172.711,83.871 Z M185.681,97.002 L181.728,97.002 L180.763,85.534 L171.795,85.534 L165.528,97.002 L162.297,97.002 L178.931,69.333 L182.306,68.268 L185.681,97.002 L185.681,97.002 Z" id="Fill-18" fill="#1A1919"></path>
            <path d="M203.038,81.996 L205.208,81.996 C207.585,81.996 209.5,81.342 210.945,80.034 C212.359,78.727 213.066,76.965 213.066,74.748 C213.066,73.213 212.648,72.119 211.813,71.464 C211.009,70.811 209.578,70.484 207.522,70.484 L205.351,70.484 L203.038,81.996 Z M211.764,69.12 C212.182,69.149 212.543,69.184 212.849,69.227 C213.155,69.269 213.419,69.348 213.644,69.461 C214.866,69.916 215.782,70.612 216.393,71.55 C217.036,72.517 217.358,73.639 217.358,74.918 C217.358,77.249 216.473,79.154 214.706,80.631 C212.873,82.108 210.479,82.89 207.522,82.976 L216.104,96.917 L211.283,96.831 L202.942,82.337 C202.942,82.394 202.877,82.798 202.749,83.552 C202.62,84.305 202.459,85.307 202.266,86.557 C202.074,87.808 201.864,89.093 201.639,90.415 C201.415,91.736 201.205,92.993 201.012,94.187 C200.82,95.381 200.675,96.291 200.579,96.917 L196.144,96.917 L201.977,68.949 L208.052,68.992 C209.659,68.992 210.897,69.034 211.764,69.12 L211.764,69.12 Z" id="Fill-19" fill="#1A1919"></path>
            <path d="M251.927,72.317 C251.446,72.061 250.85,71.821 250.144,71.593 C249.436,71.366 248.721,71.166 247.998,70.996 C247.276,70.825 246.583,70.691 245.925,70.591 C245.265,70.491 244.744,70.442 244.358,70.442 C240.275,70.442 236.997,71.962 234.521,75.003 C232.079,77.96 230.858,82.024 230.858,87.196 C230.858,89.926 231.629,92.029 233.172,93.506 C234.748,94.984 236.965,95.722 239.827,95.722 C240.179,95.722 240.5,95.722 240.79,95.722 C241.112,95.722 241.432,95.694 241.754,95.638 C242.397,95.581 242.975,95.496 243.49,95.381 L245.852,83.019 L249.662,83.019 L247.203,96.362 C245.852,96.731 244.389,97.029 242.815,97.258 C242.076,97.37 241.328,97.449 240.573,97.492 C239.817,97.533 239.055,97.556 238.283,97.556 C234.553,97.556 231.661,96.646 229.604,94.828 C227.514,93.037 226.471,90.507 226.471,87.239 C226.471,84.795 226.824,82.536 227.531,80.459 C227.885,79.409 228.318,78.4 228.833,77.434 C229.346,76.467 229.942,75.53 230.618,74.62 C232.161,72.63 234.072,71.124 236.354,70.101 C238.7,69.106 241.32,68.608 244.213,68.608 C245.691,68.608 247.09,68.708 248.408,68.907 C249.083,69.021 249.765,69.149 250.457,69.29 C251.148,69.433 251.863,69.618 252.603,69.845 L251.927,72.317" id="Fill-20" fill="#1A1919"></path>
            <polyline id="Fill-21" fill="#1A1919" points="280.566 70.527 268.802 70.527 266.584 81.783 277.577 81.783 277.24 83.316 266.295 83.316 263.884 95.381 276.227 95.381 275.842 96.917 259.882 97.002 265.235 68.949 281.096 68.992 280.566 70.527"></polyline>
            <polyline id="Fill-22" fill="#1A1919" points="312.338 68.907 311.954 70.57 301.973 70.57 296.814 96.917 292.861 96.917 292.958 96.362 298.02 70.57 287.894 70.57 288.281 68.907 312.338 68.907"></polyline>
            <path d="M140.991,110.487 C141.951,109.658 142.806,109.032 143.559,108.61 C144.311,108.203 144.958,107.999 145.502,107.999 C145.983,107.999 146.359,108.115 146.631,108.349 C146.903,108.566 147.039,108.88 147.039,109.286 C147.039,109.359 147.035,109.436 147.027,109.516 C147.019,109.596 147.006,109.687 146.991,109.788 C146.975,109.963 146.927,110.232 146.847,110.596 L145.767,116.096 C145.75,116.14 145.743,116.183 145.743,116.227 C145.743,116.271 145.727,116.321 145.695,116.379 C145.695,116.409 145.679,116.521 145.647,116.718 C145.615,116.914 145.583,117.133 145.551,117.372 C145.519,117.612 145.483,117.827 145.443,118.017 C145.403,118.205 145.375,118.3 145.359,118.3 L143.487,118.3 L144.975,110.705 C144.991,110.647 144.999,110.596 144.999,110.553 C144.999,110.494 145.014,110.437 145.047,110.378 C145.047,110.319 145.05,110.28 145.059,110.258 C145.067,110.236 145.071,110.218 145.071,110.203 C145.071,109.956 145.014,109.781 144.903,109.68 C144.791,109.577 144.599,109.526 144.327,109.526 C144.151,109.526 143.955,109.552 143.739,109.604 C143.523,109.654 143.279,109.724 143.007,109.811 C142.735,109.912 142.422,110.076 142.071,110.302 C141.719,110.527 141.334,110.741 140.918,110.945 L139.455,118.256 L137.631,118.256 L140.583,102.979 L142.479,102.805 L140.991,110.487" id="Fill-23" fill="#D8232A"></path>
            <path d="M160.647,109.327 C160.327,108.875 159.846,108.648 159.207,108.648 C158.71,108.648 158.247,108.816 157.815,109.151 C157.415,109.458 157.063,109.933 156.759,110.574 C156.583,110.939 156.435,111.308 156.315,111.68 C156.195,112.052 156.086,112.442 155.991,112.851 C155.911,113.229 155.847,113.609 155.798,113.988 C155.75,114.368 155.727,114.747 155.727,115.126 C155.695,116.061 155.847,116.761 156.183,117.228 C156.502,117.694 156.983,117.928 157.623,117.928 C158.134,117.928 158.598,117.76 159.015,117.425 C159.222,117.264 159.418,117.063 159.603,116.822 C159.787,116.582 159.951,116.301 160.095,115.979 C160.271,115.645 160.418,115.291 160.539,114.919 C160.659,114.547 160.767,114.156 160.863,113.748 C161.039,112.901 161.126,112.084 161.126,111.297 C161.126,110.421 160.966,109.765 160.647,109.327 Z M162.135,108.889 C162.775,109.546 163.095,110.45 163.095,111.603 C163.095,112.361 162.999,113.113 162.807,113.857 C162.63,114.572 162.351,115.236 161.967,115.849 C161.375,116.826 160.719,117.534 159.999,117.972 C159.279,118.409 158.415,118.628 157.407,118.628 C156.271,118.628 155.375,118.307 154.719,117.665 C154.079,117.009 153.759,116.104 153.759,114.951 C153.759,114.193 153.838,113.478 153.999,112.807 C154.159,112.121 154.399,111.501 154.719,110.946 C155.311,109.91 155.983,109.159 156.735,108.692 C157.487,108.196 158.375,107.948 159.399,107.948 C160.583,107.948 161.495,108.262 162.135,108.889 L162.135,108.889 Z" id="Fill-24" fill="#D8232A"></path>
            <path d="M171.542,117.45 C171.51,117.639 171.483,117.784 171.458,117.886 C171.434,117.987 171.411,118.082 171.386,118.169 C171.363,118.257 171.342,118.3 171.327,118.3 L169.502,118.3 L172.527,103.197 L174.422,102.805 L171.542,117.45" id="Fill-25" fill="#D8232A"></path>
            <path d="M186.927,109.185 C186.815,109.148 186.703,109.115 186.591,109.086 C186.463,109.057 186.347,109.039 186.244,109.031 C186.139,109.024 186.031,109.014 185.919,108.999 C184.799,108.999 183.815,109.597 182.967,110.793 C182.151,111.946 181.744,113.397 181.744,115.148 C181.744,115.732 181.847,116.185 182.055,116.505 C182.248,116.782 182.559,116.936 182.992,116.965 C183.328,116.965 183.679,116.885 184.047,116.724 C184.255,116.651 184.519,116.534 184.839,116.374 C185.159,116.214 185.551,116.01 186.015,115.761 L187.288,109.327 C187.159,109.269 187.039,109.221 186.927,109.185 Z M190.431,102.783 L187.408,118.344 L185.416,118.344 C185.399,118.344 185.419,118.234 185.475,118.016 C185.531,117.797 185.591,117.553 185.655,117.282 C185.719,117.013 185.807,116.658 185.919,116.221 C185.487,116.658 185.095,116.994 184.744,117.228 C184.391,117.461 184.055,117.68 183.735,117.884 C183.111,118.278 182.543,118.475 182.032,118.475 C181.327,118.489 180.767,118.205 180.351,117.621 C180.143,117.33 179.992,116.986 179.895,116.593 C179.799,116.199 179.743,115.747 179.727,115.236 C179.727,114.565 179.824,113.857 180.015,113.113 C180.239,112.354 180.511,111.69 180.832,111.121 C181.423,110.13 182.111,109.371 182.895,108.846 C183.743,108.291 184.591,108.014 185.439,108.014 C185.759,108.014 186.087,108.058 186.423,108.146 C186.599,108.188 186.771,108.24 186.939,108.298 C187.107,108.356 187.288,108.437 187.479,108.539 L188.559,103.09 L190.359,102.739 L190.431,102.783 L190.431,102.783 Z" id="Fill-26" fill="#D8232A"></path>
            <path d="M200.415,103.418 C200.59,103.578 200.678,103.798 200.678,104.074 C200.678,104.498 200.55,104.826 200.294,105.06 C200.054,105.322 199.734,105.453 199.334,105.453 C199.046,105.453 198.814,105.373 198.638,105.213 C198.478,105.066 198.399,104.848 198.399,104.556 C198.399,104.147 198.518,103.819 198.758,103.571 C198.966,103.309 199.27,103.177 199.67,103.177 C199.958,103.177 200.207,103.258 200.415,103.418 Z M197.894,108.364 L199.863,107.97 L197.918,118.344 C197.487,118.373 197.142,118.388 196.886,118.388 C196.647,118.388 196.422,118.388 196.214,118.388 C196.006,118.388 195.903,118.373 195.903,118.344 L197.894,108.364 L197.894,108.364 Z" id="Fill-27" fill="#D8232A"></path>
            <path d="M209.63,110.553 C210.495,109.677 211.302,109.035 212.054,108.627 C212.823,108.203 213.55,107.992 214.239,107.992 C214.67,107.992 215.022,108.102 215.294,108.32 C215.55,108.539 215.678,108.853 215.678,109.261 C215.678,109.319 215.678,109.393 215.678,109.48 C215.678,109.553 215.663,109.647 215.63,109.765 C215.615,109.882 215.598,109.998 215.583,110.114 C215.567,110.231 215.542,110.355 215.51,110.486 L214.023,118.365 L212.102,118.365 L213.663,110.793 C213.678,110.721 213.69,110.658 213.699,110.607 C213.707,110.557 213.718,110.494 213.735,110.421 C213.735,110.363 213.735,110.305 213.735,110.246 C213.735,110.187 213.743,110.13 213.758,110.071 C213.758,109.896 213.703,109.758 213.59,109.655 C213.478,109.553 213.302,109.502 213.063,109.502 C212.663,109.502 212.167,109.604 211.575,109.809 C210.966,110.042 210.287,110.443 209.535,111.012 L208.094,118.3 L206.294,118.3 L208.071,108.539 L210.182,107.992 L209.63,110.553" id="Fill-28" fill="#D8232A"></path>
            <path d="M225.783,109.523 C225.35,110.078 225.134,110.793 225.134,111.669 C225.134,112.369 225.31,112.909 225.663,113.288 C226.014,113.696 226.487,113.908 227.079,113.923 C227.67,113.937 228.19,113.668 228.638,113.113 C229.071,112.573 229.287,111.895 229.287,111.078 C229.287,110.363 229.11,109.794 228.758,109.371 C228.407,108.919 227.958,108.692 227.415,108.692 C226.758,108.692 226.214,108.97 225.783,109.523 Z M223.947,118.431 C223.667,118.62 223.438,118.84 223.262,119.088 C222.894,119.569 222.71,120.014 222.71,120.423 C222.694,120.89 222.958,121.269 223.502,121.561 C224.014,121.853 224.71,121.998 225.59,121.998 C226.247,122.013 226.85,121.955 227.403,121.823 C227.955,121.692 228.462,121.502 228.926,121.254 C229.854,120.758 230.319,120.196 230.319,119.569 C230.319,119.364 230.222,119.183 230.031,119.022 C229.854,118.905 229.51,118.788 228.999,118.672 L224.846,117.84 C224.526,118.045 224.226,118.241 223.947,118.431 Z M233.535,109.655 L230.342,109.437 C230.422,109.523 230.487,109.586 230.535,109.622 C230.583,109.659 230.623,109.695 230.655,109.731 C230.686,109.769 230.714,109.809 230.739,109.853 C230.762,109.896 230.798,109.969 230.846,110.071 C231.022,110.479 231.111,110.881 231.111,111.274 C231.126,112.224 230.734,113.019 229.934,113.66 C229.55,113.981 229.115,114.215 228.626,114.36 C228.138,114.507 227.59,114.587 226.983,114.602 L226.623,114.602 C226.43,114.602 226.247,114.696 226.071,114.886 C225.894,115.075 225.766,115.236 225.686,115.367 C225.623,115.47 225.579,115.568 225.554,115.663 C225.531,115.758 225.51,115.856 225.495,115.958 C225.495,116.09 225.63,116.225 225.903,116.363 C226.174,116.502 226.59,116.614 227.151,116.702 L227.294,116.724 L229.838,117.228 C230.638,117.373 231.214,117.585 231.567,117.862 C231.886,118.125 232.046,118.482 232.046,118.935 C232.046,119.284 231.958,119.635 231.783,119.985 C231.606,120.35 231.358,120.678 231.039,120.97 C230.43,121.524 229.638,121.969 228.663,122.305 C227.703,122.641 226.695,122.809 225.638,122.809 C224.294,122.822 223.142,122.597 222.182,122.13 C221.27,121.692 220.815,121.152 220.815,120.51 C220.815,120.087 221.126,119.635 221.75,119.153 C222.071,118.92 222.426,118.661 222.819,118.376 C223.21,118.092 223.726,117.818 224.367,117.556 C224.174,117.512 224.046,117.479 223.983,117.457 C223.918,117.436 223.831,117.388 223.718,117.315 C223.527,117.14 223.43,116.929 223.43,116.681 C223.415,116.418 223.583,116.133 223.934,115.827 C224.11,115.681 224.334,115.495 224.607,115.269 C224.878,115.043 225.302,114.784 225.878,114.492 C225.399,114.419 225.018,114.313 224.739,114.175 C224.458,114.036 224.19,113.835 223.934,113.572 C223.438,113.077 223.191,112.435 223.191,111.646 C223.174,110.626 223.575,109.765 224.39,109.064 C225.19,108.379 226.199,108.035 227.415,108.035 C227.846,108.035 228.186,108.068 228.434,108.134 C228.682,108.2 228.903,108.291 229.094,108.407 L233.823,108.43 L233.535,109.655 L233.535,109.655 Z" id="Fill-29" fill="#D8232A"></path>
        </g>
    </g>
</svg>