<?xml version="1.0" encoding="utf-8"?>
<!-- Generator: Adobe Illustrator 19.1.0, SVG Export Plug-In . SVG Version: 6.00 Build 0)  -->
<svg version="1.1" id="Layer_1" xmlns="http://www.w3.org/2000/svg" xmlns:xlink="http://www.w3.org/1999/xlink" x="0px" y="0px"
	 viewBox="0 0 960 560" style="enable-background:new 0 0 960 560;" xml:space="preserve" fill="#fff">
<g>
	<path d="M108.4,100c30.5,0,56,25.2,56.5,55.4c0,6.1-2.1,13.1-3.9,18.8c25.9,11.3,49.2,36.9,49.2,72.9c0,21.7-7.8,40.3-23.3,55.8
		c-15.5,15.5-34.1,23.3-55.8,23.3H52V100h56.5H108.4z M108.4,172.3c7.6,0,13.7-5.8,13.7-13.3c0-7.6-6.1-14-13.7-14H97.1v27.2H108.4z
		 M164.9,247.2c0-9.4-3.4-17.5-10-24.1c-6.6-6.6-14.7-7-24-7H97.1v64.9h33.8C149.6,280.9,164.9,265.6,164.9,247.2z"/>
	<path d="M363.6,224.9V99.3h45.5v231.5l-136.3-130v125.8h-45.5V95L363.6,224.9z"/>
	<path d="M489.8,293.3L475,326h-7.9h-1.8h-29.6h-9.7L529,95L632.3,326h-9.7H593h-2h-7.9l-14.7-32.9l-0.7-1.6h-77.4L489.8,293.3z
		 M549.1,251.4l-20-47.2l-20.2,47.2H549.1z"/>
	<path d="M649.4,99.3h45.5v227.3h-45.5V99.3z"/>
	<path d="M826.4,98.7c15.8,0,30.6,3,44.6,9c14,6.1,26.2,14.2,36.8,24.5l-32.4,32.4c-13.7-13.5-29.9-20.3-48.6-20.3
		c-19,0-35.2,6.8-48.6,20.3s-20.2,29.7-20.2,48.6c0,19,6.8,35.2,20.2,48.6c13.4,13.4,29.6,20.2,48.6,20.2s35.2-6.8,48.8-20.3
		l32.4,32.4c-10.6,10.4-22.8,18.6-36.8,24.7c-14,6.1-28.8,9-44.6,9c-31.6,0-58.7-11.3-81.1-33.7c-22.4-22.4-33.7-49.5-33.7-81.1
		s11.3-58.7,33.7-81.2s49.5-33.8,81.1-33.8L826.4,98.7z"/>
	<path d="M233,463v2.2h-47.7V463l39.7-41.1c1.5-2,2.8-4.2,3.6-6.6c0.9-2.4,1.3-5,1.3-7.8c0-3.1-0.6-6-1.7-8.8
		c-1.2-2.8-2.7-5.2-4.7-7.2c-2-2-4.3-3.7-7-4.9c-2.7-1.2-5.5-1.8-8.5-1.8c-3,0-5.8,0.6-8.5,1.8c-2.7,1.2-5,2.8-6.9,4.9
		c-2,2-3.5,4.4-4.7,7.2c-1.2,2.8-1.7,5.7-1.7,8.8H184c0-3.4,0.6-6.6,1.9-9.6c1.3-3,3-5.6,5.2-7.9c2.2-2.3,4.7-4.1,7.6-5.4
		c2.9-1.3,6-2,9.3-2c3.3,0,6.4,0.7,9.4,2c2.9,1.3,5.5,3.1,7.7,5.4c2.2,2.3,3.9,4.9,5.2,7.9c1.3,3,1.9,6.2,1.9,9.6
		c0,3.5-0.6,6.7-1.9,9.8c-1.3,3-3,5.7-5.3,7.9L188.3,463H233z"/>
	<path d="M376.2,465.1c-10.4,0-18.3-4.1-23.8-12.2c-2.5-3.6-4.3-7.9-5.5-12.8c-1.2-4.9-1.8-10.3-1.8-16.2c0-5.9,0.7-11.3,2-16.2
		c1.3-4.9,3.2-9.2,5.7-12.9c2.7-4,6-7,10-9.1c4-2.1,8.5-3.1,13.4-3.1c4.9,0,9.4,1,13.4,3.1c4,2.1,7.4,5.1,10,9.1
		c2.5,3.7,4.3,8,5.7,12.9c1.3,4.9,2,10.3,2,16.2c0,5.9-0.6,11.3-1.8,16.2c-1.2,4.9-3,9.1-5.5,12.8
		C394.5,461.1,386.6,465.1,376.2,465.1z M376.2,384.8c-5.3,0-9.8,1.2-13.5,3.5c-3.7,2.3-6.6,5.3-9,9s-4,7.9-5,12.6
		c-1,4.7-1.5,9.4-1.5,14.1c0,11.6,2.3,20.9,6.9,27.7c5,7.5,12.3,11.3,21.9,11.3c9.6,0,16.9-3.8,21.9-11.3c4.6-6.9,6.9-16.1,6.9-27.7
		c0-4.7-0.5-9.4-1.5-14.1c-1-4.7-2.7-8.9-5-12.6s-5.3-6.7-9-9C386,385.9,381.5,384.8,376.2,384.8z"/>
	<path d="M555.2,382.6v82.6H553v-79.3l-18.9,18.8l-1.5-1.5l20.4-20.6H555.2z"/>
	<path d="M746.1,384.8l-38.6,80.4H705l38.5-80.4H693v-2.2h53.1V384.8z"/>
</g>
<circle cx="824.5" cy="422" r="10.8"/>
<circle cx="117.1" cy="422" r="10.8"/>
</svg>
