<?xml version="1.0" encoding="utf-8"?>
<!-- Generator: Adobe Illustrator 19.1.0, SVG Export Plug-In . SVG Version: 6.00 Build 0)  -->
<svg version="1.1" id="Layer_1" xmlns="http://www.w3.org/2000/svg" xmlns:xlink="http://www.w3.org/1999/xlink" x="0px" y="0px"
	 viewBox="0 0 960 560" style="enable-background:new 0 0 960 560;" xml:space="preserve">
<g>
	<path d="M217.6,284.6c0,53.3-73.2,50.3-88.2,50.3c-14.6,0-50.7,1.1-59.3,1.1c-9,0-10.5-6.8-10.5-14.3l0.4-83.3c0-7.1,0-12.4,0-18
		c0-7.1,0-14.3,1.1-25.9c1.1-21,1.1-78.4,2.2-88.9c0.4-3,0.4-6.8,0.4-10.5c0-8.3-0.7-16.9-1.1-18.8c-0.4-0.7-0.4-1.5-0.4-1.9
		c0-1.5,1.1-2.6,4.1-3.4c3.4-1.1,29.3-5.3,49.2-5.3c40.5,0,77.3,10.5,77.3,68.3c0,29.6-10.9,46.2-21.8,56.3
		c-6.4,5.6-13.5,9.8-21.4,12.4C157.9,205.8,217.6,226.5,217.6,284.6z M193.9,284.3c0-40.9-21.8-59.3-43.2-68.3
		c-12.8-4.9-27-7.1-43.2-6.8c-0.4,1.1-0.4,1.9-0.4,3c-0.4,1.9-0.4,4.5-0.4,8.6c0,8.3,1.5,37.5,1.5,44.3c0,7.1-0.8,8.3-0.8,17.3
		c0,9,1.5,32.6,1.5,39.4c0,7.5,4.1,6,11.3,6C171,327.8,193.9,309.8,193.9,284.3z M108,194.6c0,2.6,0,3.4,2.6,3.4
		c3,0,68.3-3.4,68.3-60.8c0-57.8-34.5-60.4-68.7-60.4l-0.8,24c-0.4,13.5-0.7,29.6-0.7,40.1v42.8C108.8,189.7,108,192,108,194.6z"/>
	<path d="M357.5,70.8c0-10.9,11.3-10.1,19.1-10.1s30.8-1.1,41.3-3c10.5-1.1,10.5,5.3,9,16.9c-0.8,5.6-0.8,39.4-0.8,74.7
		c0,34.9,0,72,0,84.8c0,31.9,2.6,110.7,2.6,93.8c0,4.5-2.3,6-6,6c-1.1,0-2.6,0-4.5-0.4c-1.5-0.4-3.8-0.4-6-0.4
		c-8.3,0-20.6,1.5-28.9,1.5c-10.1,0-13.5-4.1-18-13.9c-5.3-10.1-15-33-26.3-52.2c-5.6-9.4-15.8-28.5-24.8-45.4L297.9,192v14.3
		c0,8.6-0.4,17.6,0,26.3c0,16.9,0.4,78.8,2.3,88.9c0.4,1.9,0.4,3.4,0.4,4.5c0,5.6-2.6,5.6-7.1,5.3c-6,0-21,1.1-29.3,2.3
		c-7.9,1.1-9-1.5-8.6-13.5c0-11.6-1.9-64.2-3-109.6c0-31.9,1.9-73.5,1.9-101.3c0-10.9-0.4-19.9-1.1-25.1c-0.4-3.4-0.8-6-0.8-8.6
		c0-10.5,4.5-12,9.8-11.6c6,0.4,10.1,0.4,22.1-2.3c4.1-0.8,6.4-0.8,8.3-0.8c4.1,0,6.4,0.8,17.3,0.8c15.8,0,23.6,20.6,30.8,32.6
		c3.4,6.4,7.5,12.8,10.9,17.6l5.6,8.6V99.6C357.1,88.8,357.1,76.4,357.5,70.8z"/>
	<path d="M471.2,289.1c1.1-6,4.1-17.3,7.1-27.4c3-10.5,10.1-32.3,12-43.2c2.6-11.6,7.9-27,9.8-35.6c1.9-9,7.1-27.4,10.1-38.6
		c3.4-10.9,6-20.6,8.6-26.3c1.9-5.6,9.8-26.6,11.6-36.8c3-10.5,6-18,13.1-18c3.4,0,6,8.3,10.1,18.8c4.1,9.8,11.6,40.1,13.5,46.2
		c1.1,6.8,17.6,50.7,19.5,57.4c3,7.5,16.1,44.3,20.3,53.7c3,9,12.4,36.4,15.4,48c3,12,13.1,36,15,40.9c0.7,1.9,1.1,3,1.1,3.8
		c0,1.1-0.8,1.5-4.1,1.5h-21c-1.9,0-3-0.4-4.1-3.4c-1.9-4.9-3-9.4-4.1-13.5c-2.6-7.1-4.1-14.3-4.5-16.9c-1.1-5.6-4.9-19.5-7.9-25.5
		c-1.5-3.4-4.1-10.1-6-16.1l-3.4-10.9c-2.6-6-3.4-6-6-6c-4.1,0-7.9,0-11.6,0.4c-6.4,0.4-13.5,0.8-16.1,0.8c-3,0.4-15.8,0.4-27.8,0.4
		H499c-0.4,0-0.4,0-0.8,0c-1.5,0-2.6,1.1-3.4,4.1l-0.8,3.8l-1.5,7.1c-1.9,6-7.5,35.3-8.6,38.3c-0.4,3-1.9,9.4-3.4,12.4
		c-1.1,1.5-2.3,7.1-3.8,12c-1.1,3-1.9,6.4-2.6,9.8c-1.1,3-0.7,3.4-4.1,3.4h-7.5c-2.6,0-3-1.5-1.9-4.9c0-0.4,0-1.1,0.4-1.9
		c0.4-1.1,0.4-2.6,1.5-5.3l3.4-13.9C467.1,303.4,470.1,296.3,471.2,289.1z M572.1,214.1c0-1.5-1.1-4.5-2.6-8.3
		c-3-6.8-9.4-31.1-13.5-42.4c-3.8-11.3-12-40.1-13.1-46.5c-1.9-6.8-5.6-19.9-7.5-19.9c-1.5,0-3.4,9.8-6,18.4
		c-1.9,8.3-11.3,42-14.3,51c-1.9,9-9.4,37.1-12.4,45c-0.4,1.1-0.8,1.9-0.8,2.6c0,4.9,7.1,3.8,10.5,3.8c3.8,0,16.9-0.8,21.8-0.8
		c2.3-0.4,7.1-0.7,12.8-0.7c7.5,0,16.1,0.4,20.3,0.4C571,216.7,572.1,216,572.1,214.1z"/>
	<path d="M667,83.1c0-12,3.4-14.6,7.5-14.6c0.8,0,1.9,0,3,0.4c6.4,0.4,18.8-0.7,29.6,0.4c6.4,0.8,8.3,2.6,8.3,6
		c0,2.3-0.8,4.9-1.1,8.3c-1.1,8.6-4.1,30-4.5,65.7c-0.4,9.8-0.4,20.3-0.4,30c0,26.6,0.7,50.7,0.7,57c0,6.8,1.1,30.4,1.1,43.9
		c0,4.1,0,7.1-0.4,8.6c-0.4,1.5-0.4,4.9-0.4,8.6c0,10.5,0.8,26.3,0.8,31.9c0.4,7.1-5.6,7.5-11.3,7.1h-34.1c-8.6,0.4-8.6-5.3-9-11.6
		c-1.1-6,2.3-18.8,2.3-31.9c0-13.9,4.9-79.2,4.9-89.3c0-9.8,1.5-61.9,1.5-70.9c0-4.5,0.4-13.1,0.7-20.3l0.8-13.5V83.1z"/>
	<path d="M919.6,290.6c0,1.1-0.4,2.6-1.1,4.1c-4.1,7.1-25.9,43.2-74.7,43.2c-49.2,0-96.1-59.3-96.1-137.3s45.8-131.3,87.8-131.3
		c41.7,0,62.3,26.3,66.4,32.3c2.3,3,4.1,5.3,4.1,7.9c0,1.5-1.1,3.4-4.1,6c-7.1,5.6-19.1,16.1-24.8,23.6c-4.1,5.3-7.9,9.8-11.6,9.8
		c-1.9,0-3.8-1.1-6-3.8c-7.1-7.9-13.1-15.8-22.5-15.8c-16.5,0-40.5,19.1-40.5,80.7c0,61.2,33.8,73.2,44.3,73.2
		c10.5,0,22.1-10.5,26.3-14.6c2.6-2.6,3.8-4.5,5.6-4.5c1.1,0,2.6,0.4,4.5,1.5l31.9,17.6C914.7,285.8,919.6,286.9,919.6,290.6z"/>
	<path d="M197.2,421.4c0,11-5.4,18.6-9.4,25.1c-3.9,6.5-23.7,32.1-24.4,32.8c-1,1-2.1,2.1-1.1,2.1c0.7,0,3.2,0.1,6.2,0.1
		c1.5,0,3.2,0,4.9-0.1c4.9,0,19.2-0.1,24.4-0.6c5.3-0.4,4.3,2.1,4.3,4.3c-0.1,2.4,0,6.8,0,10.6s-1.5,3.9-5.4,3.9
		c-2.6,0-10.1,0.3-15.8,0.3c-2.1,0-4,0-5.3-0.1c-3.2,0-14.3-0.1-21.9-0.1c-3.9,0-6.8,0-7.5,0.1c-0.6,0.1-1.2,0.1-1.9,0.1
		c-1.4,0-2.6-0.4-2.6-1.5c0-1.5,1.1-2.6,3.3-5.3c2.2-2.6,16.8-21.5,22.6-28.5c5.8-6.9,15.1-16.7,20.7-30.4c1.1-2.8,1.5-5.4,1.5-7.8
		c0-9.7-7.8-16.1-14.3-16.1c-8.3,0-13.1,2.1-16.8,3.6c-3.5,1.5-8.7,8.9-9.6,9.3c-0.3,0.1-0.6,0.3-0.7,0.3c-0.4,0-0.7-0.4-1.2-0.8
		c-0.6-0.6-1.7-1.1-2.4-1.7c-0.6-0.6-0.8-0.8-0.1-1.8c0.7-1,3.6-4.6,6.8-7.8c3.1-3.1,16.5-11.4,24-11.4
		C188.7,400,197.2,410.6,197.2,421.4z"/>
	<path d="M363.4,497c-2.4-1.2-4.9-4.3-7.4-8.9c-2.6-4.9-4.3-9.2-5.3-13.2c-0.8-4-1.2-12.9-1.2-26.8s1-27.6,6-35.8
		c2.6-4.2,6-7.2,10.1-9.2c4.2-1.9,10.3-3.1,18.2-3.2c10.3,1.5,16.9,5.1,20.1,10.8c3.2,5.7,5.1,11.9,5.7,18.5
		c0.6,6.5,0.8,14,0.8,22.6c0,8.6-0.6,16.5-1.8,23.7c-2.2,14.3-12.4,23.9-28.9,23.9C371.3,499,365.7,498.2,363.4,497z M373.2,410.9
		c-3.5,1.8-6,4.6-7.8,8.2c-1.7,3.3-2.5,6.9-2.5,10.8c0,4.4,0.3,10.6,0.3,18.6l0.3,13.5c0.3,7.6,1.7,12.9,4.3,16.1
		c2.6,3.2,5,6,6.9,8.6s5.1,3.9,9.4,3.9c5,0,11.5-3.9,16-11.5c2.1-3.5,3.1-8.1,3.1-13.2c0-6.4-0.3-11.2-0.3-14.3
		c0.1-5.3,0.3-9.9,0.3-13.9c0-5.1-0.1-9.2-0.6-12.2c-0.7-5.4-1.8-9.7-3.5-12.6c-1.7-2.9-4-4.6-7.2-4.9c-1.5-0.1-3.1-0.3-4.7-0.3
		c-1.5,0-3.1,0.1-4.7,0.3C379.9,408,376.7,408.9,373.2,410.9z"/>
	<path d="M562.4,423.4c-1,0-1.5-0.3-1.5-0.7c-0.3-0.4-0.4-1-0.4-1.7c-0.1-3.7,0-6.1,0.3-7.1c0.4-1,1.5-1.8,3.6-2.6
		c9-0.4,18.7-3.2,29.3-8.5c1.4-0.4,2.5-0.6,3.5-0.6c2.1,0,3.2,0.8,3.2,1.8c0,7.1-0.3,11.2-0.4,16.7l-0.8,12.8v9.7l0.4,8.5
		c0.1,2.2,0.3,6.2,0.3,12.2c0.3,4.9-0.1,19.6,1.1,25.4c11,0.4,16.5,1.1,16.5,1.9l0.4,6c0.1,1.9-1,2.9-3.5,2.8
		c-4.6-0.1-7.9-0.3-10.1-0.6c-2.2-0.3-4.9-0.4-7.8-0.6c-4.4,0.3-10.4,0.6-17.9,0.8c-1.7,0-3.5-0.1-5.4-0.1c-3.2,0-6.9,0.1-11,0.4
		c-1,0-1.7-1.4-2.1-4c0-0.4-0.1-0.8,0-1.2c0-1.9,0.6-3.2,1.7-3.5c6.1-0.8,11.2-1.8,15.4-2.8c4.6,0.1,6.8-1,6.8-3.1
		c0.1-2.2,0.1-4.2,0.1-6c0-1.8,0-4.4-0.1-7.9v-12.5c0.1-5,0-9.3-0.3-13.1c0-2.4-0.1-4.6-0.1-6.9s0.1-4.7,0.1-7.1l0.4-13.5l-16.4,3.9
		C565.2,423,563.6,423.4,562.4,423.4z"/>
	<path d="M808.4,434.1c4.9-7.1,12.8-19.9,12.8-20.7c0-0.3-0.1-0.4-0.6-0.4c-0.7,0-1.9,0.6-3.1,0.4c-1.5-0.1-3.7-0.4-9.4-0.4
		c-5.8,0-31.2,2.5-34.2,3.1c-0.7,0.1-1.4,0.3-1.9,0.3c-1.5,0-2.4-0.7-2.4-2.2c0-0.8,0.1-2.2,0.1-3.5c0-0.7,0-1.4-0.1-1.9
		c0-0.1,0-0.3,0-0.3c0-1.8,1.1-2.2,2.6-2.4c1.7,0,9-0.6,14.4-0.6c4.7,0,12.9-0.6,18.6-0.6c1.4,0,2.8,0,3.7,0.1
		c1.5,0.1,3.8,0.3,6,0.3c5.7,0,12.4-0.4,14.2-0.4c2.4,0,1.8,3.6,1.8,6.8c0,3.3-1.9,6-5.3,11c-2.1,2.6-8.3,11.5-14.2,20h10
		c4-0.4,4.2,1.2,4.2,3.9V457c0,2.1-0.8,2.9-5.1,2.9h-6.9l-5-0.4c-1-0.1-2.4-0.3-4.3-0.3c-1.2,0-2.6,0.1-4.3,0.1
		C795,467,783,487.5,780.3,492c-2.9,4.6-5.6,9.7-6.7,10.4c-0.1,0.1-0.4,0.1-0.6,0.1c-0.8,0-1.4-1.4-3.2-2.5c-0.7-0.4-1-1-1-1.5
		c0-0.8,0.8-2.1,2.2-4.2c1.9-3.1,9.6-16,12.9-21.5c1.1-2.4,4.3-7.5,8.2-13.5h-1.8c-2.1,0-10.1,0.4-11.9,0.8c-1.8,0-1.8-1.4-1.8-3.2
		v-9.7c0-2.9,0.6-4.6,2.6-4.6h23.6C805.4,439.1,807.3,435.9,808.4,434.1z"/>
	<path d="M91,450.7c0,3.3-3.6,6-7.1,6c-3.3,0-6.8-2.5-6.8-8.1c0-6.1,3.6-6.9,6.8-6.9C90.5,441.6,91,447.3,91,450.7z"/>
	<path d="M899.6,450.7c0,3.3-3.6,6-7.1,6c-3.3,0-6.8-2.5-6.8-8.1c0-6.1,3.6-6.9,6.8-6.9C899,441.6,899.6,447.3,899.6,450.7z"/>
</g>
</svg>
