<?xml version="1.0" encoding="utf-8"?>
<!-- Generator: Adobe Illustrator 19.1.0, SVG Export Plug-In . SVG Version: 6.00 Build 0)  -->
<svg version="1.1" id="Layer_1" xmlns="http://www.w3.org/2000/svg" xmlns:xlink="http://www.w3.org/1999/xlink" x="0px" y="0px"
	 viewBox="0 0 960 400" xml:space="preserve" fill="#000">
<g>
	<path d="M108.4,100c30.5,0,56,25.2,56.5,55.4c0,6.1-2.1,13.1-3.9,18.8c25.9,11.3,49.2,36.9,49.2,72.9c0,21.7-7.8,40.3-23.3,55.8
		c-15.5,15.5-34.1,23.3-55.8,23.3H52V100h56.5H108.4z M108.4,172.3c7.6,0,13.7-5.8,13.7-13.3c0-7.6-6.1-14-13.7-14H97.1v27.2H108.4z
		 M164.9,247.2c0-9.4-3.4-17.5-10-24.1c-6.6-6.6-14.7-7-24-7H97.1v64.9h33.8C149.6,280.9,164.9,265.6,164.9,247.2z"/>
	<path d="M363.6,224.9V99.3h45.5v231.5l-136.3-130v125.8h-45.5V95L363.6,224.9z"/>
	<path d="M489.8,293.3L475,326h-7.9h-1.8h-29.6h-9.7L529,95L632.3,326h-9.7H593h-2h-7.9l-14.7-32.9l-0.7-1.6h-77.4L489.8,293.3z
		 M549.1,251.4l-20-47.2l-20.2,47.2H549.1z"/>
	<path d="M649.4,99.3h45.5v227.3h-45.5V99.3z"/>
	<path d="M826.4,98.7c15.8,0,30.6,3,44.6,9c14,6.1,26.2,14.2,36.8,24.5l-32.4,32.4c-13.7-13.5-29.9-20.3-48.6-20.3
		c-19,0-35.2,6.8-48.6,20.3s-20.2,29.7-20.2,48.6c0,19,6.8,35.2,20.2,48.6c13.4,13.4,29.6,20.2,48.6,20.2s35.2-6.8,48.8-20.3
		l32.4,32.4c-10.6,10.4-22.8,18.6-36.8,24.7c-14,6.1-28.8,9-44.6,9c-31.6,0-58.7-11.3-81.1-33.7c-22.4-22.4-33.7-49.5-33.7-81.1
		s11.3-58.7,33.7-81.2s49.5-33.8,81.1-33.8L826.4,98.7z"/>
</g>
</svg>
